<?xml version="1.0" encoding="UTF-8" standalone="no"?>
<svg
   xmlns:dc="http://purl.org/dc/elements/1.1/"
   xmlns:cc="http://creativecommons.org/ns#"
   xmlns:rdf="http://www.w3.org/1999/02/22-rdf-syntax-ns#"
   xmlns:svg="http://www.w3.org/2000/svg"
   xmlns="http://www.w3.org/2000/svg"
   xmlns:sodipodi="http://sodipodi.sourceforge.net/DTD/sodipodi-0.dtd"
   xmlns:inkscape="http://www.inkscape.org/namespaces/inkscape"
   id="Layer_1"
   version="1.1"
   viewBox="0 0 60 60"
   xml:space="preserve"
   inkscape:version="0.91 r13725"
   sodipodi:docname="Behance.svg"
   width="60"
   height="60"><metadata
     id="metadata11"><rdf:RDF><cc:Work
         rdf:about=""><dc:format>image/svg+xml</dc:format><dc:type
           rdf:resource="http://purl.org/dc/dcmitype/StillImage" /><dc:title></dc:title></cc:Work></rdf:RDF></metadata><defs
     id="defs9" /><sodipodi:namedview
     pagecolor="#ffffff"
     bordercolor="#666666"
     borderopacity="1"
     objecttolerance="10"
     gridtolerance="10"
     guidetolerance="10"
     inkscape:pageopacity="0"
     inkscape:pageshadow="2"
     inkscape:window-width="1920"
     inkscape:window-height="1046"
     id="namedview7"
     showgrid="false"
     inkscape:zoom="7.9999996"
     inkscape:cx="9.7203483"
     inkscape:cy="31.474533"
     inkscape:window-x="-11"
     inkscape:window-y="-11"
     inkscape:window-maximized="1"
     inkscape:current-layer="Layer_1" /><path
     inkscape:connector-curvature="0"
     id="XMLID_102_"
     d="m 17.760405,11.751045 c 1.709737,0 3.264041,0.141295 4.677046,0.452162 1.398874,0.296729 2.599929,0.791282 3.617292,1.483655 1.003234,0.678241 1.780386,1.596694 2.331459,2.727098 0.55107,1.130403 0.819542,2.543408 0.819542,4.210755 0,1.808645 -0.409771,3.306429 -1.229314,4.521613 -0.819544,1.201055 -2.034727,2.190158 -3.659682,2.95318 2.204287,0.635853 3.843372,1.752127 4.917255,3.334692 1.088013,1.596695 1.624956,3.504251 1.624956,5.750928 0,1.822777 -0.353252,3.377083 -1.045623,4.691176 -0.706502,1.328224 -1.653216,2.416239 -2.84014,3.249911 -1.186923,0.833672 -2.543408,1.455396 -4.069454,1.865167 -1.511915,0.39564 -3.080349,0.60759 -4.677046,0.60759 l -17.35169662,0 0,-35.847927 16.88540562,0 z m -1.017363,14.469167 c 1.398875,0 2.557538,-0.324991 3.475991,-1.003232 0.904323,-0.664112 1.342356,-1.752127 1.342356,-3.264041 0,-0.833674 -0.141295,-1.526045 -0.438033,-2.062988 -0.31086,-0.536941 -0.706502,-0.946712 -1.215184,-1.243443 -0.508682,-0.310861 -1.073883,-0.508682 -1.737996,-0.635854 -0.64998,-0.127179 -1.328224,-0.183681 -2.034727,-0.183681 l -7.3758827,0 0,8.379117 7.9834757,0 0,0.01417 z m 0.438032,15.260452 c 0.777152,0 1.511916,-0.07066 2.218416,-0.226082 0.706503,-0.155431 1.328225,-0.395642 1.865167,-0.763023 0.522812,-0.353251 0.960844,-0.819542 1.285834,-1.427134 0.324992,-0.607593 0.466291,-1.384745 0.466291,-2.317327 0,-1.851038 -0.522811,-3.151001 -1.554304,-3.956414 -1.031493,-0.791282 -2.416239,-1.172794 -4.111844,-1.172794 l -8.5769382,0 0,9.862774 8.4073782,0 0,0 z"
     style="fill:#000000;fill-opacity:1" /><path
     inkscape:connector-curvature="0"
     id="XMLID_99_"
     d="m 42.120606,41.353492 c 1.073884,1.045625 2.614059,1.568436 4.606395,1.568436 1.441264,0 2.68471,-0.367381 3.716203,-1.088015 1.031493,-0.720632 1.667346,-1.497784 1.907555,-2.303197 l 6.273741,0 c -1.003232,3.122742 -2.543409,5.355288 -4.620524,6.697643 -2.062988,1.342354 -4.578136,2.020596 -7.517186,2.020596 -2.048857,0 -3.885763,-0.324991 -5.538977,-0.989103 -1.653217,-0.664112 -3.02383,-1.582565 -4.182494,-2.78362 -1.130404,-1.215184 -2.006468,-2.642319 -2.62819,-4.323794 -0.621722,-1.667345 -0.932582,-3.51838 -0.932582,-5.524848 0,-1.935817 0.32499,-3.758593 0.960843,-5.425937 0.649983,-1.681476 1.540175,-3.136872 2.712969,-4.352056 1.172794,-1.229314 2.571667,-2.190155 4.210754,-2.896658 1.624954,-0.706503 3.419472,-1.059754 5.411808,-1.059754 2.190158,0 4.111843,0.423901 5.765059,1.285834 1.639085,0.847803 2.981439,1.992336 4.041193,3.433601 1.059754,1.441266 1.808645,3.080351 2.274936,4.917257 0.466294,1.836906 0.635854,3.758593 0.494553,5.779188 l -18.722312,0 c 0,2.062988 0.692373,4.012934 1.766256,5.044427 z m 8.181297,-13.621365 c -0.847802,-0.932582 -2.274937,-1.441264 -4.027064,-1.441264 -1.144533,0 -2.077115,0.197821 -2.840138,0.579331 -0.734763,0.381513 -1.342356,0.861933 -1.808647,1.427135 -0.466291,0.579331 -0.777152,1.186924 -0.960843,1.822777 -0.183682,0.635851 -0.296732,1.201053 -0.324991,1.709734 l 11.600768,0 c -0.155431,-1.808645 -0.777152,-3.150999 -1.639085,-4.097713 z"
     style="fill:#000000;fill-opacity:1" /><rect
     y="14.153152"
     x="38.898956"
     width="14.525688"
     id="XMLID_98_"
     height="3.5325117"
     style="fill:#000000;fill-opacity:1" /></svg>