<?xml version="1.0" encoding="UTF-8" standalone="no"?>
<!-- Created with Inkscape (http://www.inkscape.org/) -->

<svg
   xmlns:dc="http://purl.org/dc/elements/1.1/"
   xmlns:cc="http://creativecommons.org/ns#"
   xmlns:rdf="http://www.w3.org/1999/02/22-rdf-syntax-ns#"
   xmlns:svg="http://www.w3.org/2000/svg"
   xmlns="http://www.w3.org/2000/svg"
   xmlns:sodipodi="http://sodipodi.sourceforge.net/DTD/sodipodi-0.dtd"
   xmlns:inkscape="http://www.inkscape.org/namespaces/inkscape"
   width="16.933332mm"
   height="16.933332mm"
   viewBox="0 0 59.999997 59.999997"
   id="svg4613"
   version="1.1"
   inkscape:version="0.91 r13725"
   sodipodi:docname="favicon.svg"
   inkscape:export-filename="C:\Users\Divit\Desktop\git-repos\Personal-Site-New\assets\images\favicon.png"
   inkscape:export-xdpi="90"
   inkscape:export-ydpi="90">
  <defs
     id="defs4615" />
  <sodipodi:namedview
     id="base"
     pagecolor="#ffffff"
     bordercolor="#666666"
     borderopacity="1.0"
     inkscape:pageopacity="0.0"
     inkscape:pageshadow="2"
     inkscape:zoom="4.4577192"
     inkscape:cx="-13.278366"
     inkscape:cy="24.376215"
     inkscape:document-units="px"
     inkscape:current-layer="layer1"
     showgrid="false"
     fit-margin-top="0"
     fit-margin-left="0"
     fit-margin-right="0"
     fit-margin-bottom="0"
     inkscape:window-width="1920"
     inkscape:window-height="1046"
     inkscape:window-x="-11"
     inkscape:window-y="-11"
     inkscape:window-maximized="1" />
  <metadata
     id="metadata4618">
    <rdf:RDF>
      <cc:Work
         rdf:about="">
        <dc:format>image/svg+xml</dc:format>
        <dc:type
           rdf:resource="http://purl.org/dc/dcmitype/StillImage" />
        <dc:title></dc:title>
      </cc:Work>
    </rdf:RDF>
  </metadata>
  <g
     inkscape:label="Layer 1"
     inkscape:groupmode="layer"
     id="layer1"
     transform="translate(-75.182968,-487.46924)">
    <path
       style="opacity:1;fill:#ffffff;fill-opacity:1;stroke:none;stroke-width:5;stroke-linecap:round;stroke-linejoin:round;stroke-miterlimit:4;stroke-dasharray:none;stroke-dashoffset:0;stroke-opacity:1"
       d="m 108.93757,496.81821 c -6.81244,0.76632 -12.134165,5.84176 -16.823738,10.44821 -7.353137,7.95808 -11.860045,18.02309 -15.885376,27.9707 -0.709043,1.30296 0.0354,3.38556 1.774975,2.7734 1.735409,-0.78934 1.431106,-3.14079 2.404932,-4.55515 4.717104,-11.15514 10.47548,-22.66991 20.659027,-29.81418 2.35474,-1.48169 4.81155,-3.20156 7.6019,-3.64772 2.06027,-0.0566 2.94546,2.11901 2.89791,3.87314 0.1976,5.60171 -3.36006,10.42358 -6.52597,14.71712 -2.63951,3.52767 -7.423713,3.69211 -11.245275,5.12796 -2.654172,0.97327 -5.774314,1.96025 -7.267438,4.50536 -1.1983,2.49864 0.554679,6.4298 3.668243,5.93564 4.148098,-0.60044 7.315514,-3.71326 10.43477,-6.25091 2.47342,-2.26504 4.61541,-5.04626 7.84541,-6.26048 1.51922,-0.67007 2.93561,-2.02147 4.47718,-2.32637 1.12363,0.46723 1.11574,2.15616 1.89531,3.0876 -0.0574,1.35679 -2.09206,1.42723 -3.03276,2.17307 -3.45094,1.7749 -7.3726,3.71485 -9.19283,7.32214 -0.48781,2.57908 2.6013,4.14338 4.72158,3.95464 4.57176,0.36798 9.60338,-0.64302 12.95686,-3.94842 1.48198,-2.05874 1.17584,-5.00892 -0.27848,-6.99745 0.20439,-1.5691 2.35503,-1.40456 3.50333,-2.08448 2.4826,-0.9889 5.27449,-1.61032 7.46236,-3.13404 0.75557,-1.498 -1.35979,-3.14526 -2.65045,-2.04055 -3.4627,1.02397 -6.82343,2.86151 -10.33133,3.65705 -0.87917,-1.31463 -1.81943,-2.9341 -1.74441,-4.55007 6.04359,-4.72035 12.65201,-8.93902 17.70957,-14.77146 1.04712,-1.56297 0.10308,-4.03544 -1.92893,-3.91276 -3.54884,-0.1336 -6.49416,2.16473 -9.55194,3.73836 -2.66239,1.66948 -5.14354,3.71214 -6.99166,6.27531 -1.77212,-0.10658 -0.51176,-1.91939 -0.69109,-3.0264 0.36843,-3.71273 -1.56521,-8.28183 -5.87168,-8.23926 z m 22.96544,2.71737 c 1.44223,0.21172 0.11444,2.42771 -0.72392,1.21123 -0.26148,-0.49395 0.14347,-1.26877 0.72392,-1.21123 z m -4.60158,4.17028 c -0.29652,1.17101 -1.97713,1.82491 -2.8493,2.76014 -1.78443,1.43724 -3.60467,2.82936 -5.43467,4.20789 -1.70194,-0.67135 0.17288,-1.87917 0.75504,-2.6687 1.98599,-2.04889 4.40945,-3.6229 6.94482,-4.90552 0.1947,0.20207 0.38941,0.40413 0.58411,0.60619 z m -14.7092,10.95153 c 0.75448,1.07432 -1.69593,1.19541 -0.97182,-0.0226 0.16851,-0.5566 0.61271,-0.0485 0.97182,0.0226 z m 4.42103,11.45017 c 1.22571,1.32138 1.65734,4.14561 -0.50884,4.77308 -2.8678,1.59531 -6.25893,2.10928 -9.49804,1.72743 -1.10079,-1.2715 1.21321,-1.94448 1.96175,-2.69642 2.47682,-1.52037 5.04239,-3.21707 7.82722,-3.97502 l 0.21791,0.17093 z m -21.496101,0.52242 c 1.371265,0.76197 -0.531299,1.7121 -1.181809,2.21419 -1.316492,0.82994 -2.964799,2.20233 -4.518084,1.81737 -1.106257,-1.06368 0.82101,-2.36502 1.817134,-2.68618 1.284019,-0.4411 2.529958,-1.16367 3.882759,-1.34538 z"
       id="path4588"
       inkscape:connector-curvature="0" />
    <path
       style="opacity:1;fill:#5030ab;fill-opacity:1;stroke:none;stroke-width:5;stroke-linecap:round;stroke-linejoin:round;stroke-miterlimit:4;stroke-dasharray:none;stroke-dashoffset:0;stroke-opacity:1"
       d="m 23.932067,485.11827 a 30,30 0 0 0 -30.0000028,30 30,30 0 0 0 3.369141,13.79102 c 3.56280496,-8.49209 7.695288,-16.87401 13.9746088,-23.66993 4.541076,-4.46058 9.694303,-9.37709 16.291013,-10.11914 4.17011,-0.0412 6.04426,4.38336 5.6875,7.97852 0.17365,1.07196 -1.04802,2.82844 0.66797,2.93164 1.78961,-2.482 4.1934,-4.45955 6.77149,-6.07617 2.24265,-1.15414 4.42283,-2.70675 6.84179,-3.33789 a 30,30 0 0 0 -23.60351,-11.49805 z m 3.375,13.07812 c -2.70199,0.43203 -5.0792,2.09649 -7.35938,3.53125 -9.861065,6.91805 -15.4381278,18.0692 -20.00585684,28.8711 -0.313821,0.45578 -0.486441,1.01249 -0.644532,1.58008 a 30,30 0 0 0 24.63476884,12.93945 30,30 0 0 0 30,-30 30,30 0 0 0 -3.32031,-13.70508 c -4.71795,4.988 -10.55979,8.80271 -15.95118,13.01367 -0.0726,1.56479 0.83812,3.1313 1.68946,4.4043 3.39681,-0.77035 6.65085,-2.54948 10.0039,-3.54102 1.24979,-1.06973 3.30001,0.52599 2.56836,1.97657 -2.11859,1.47546 -4.82258,2.07757 -7.22656,3.03515 -1.11193,0.65839 -3.19467,0.49817 -3.39258,2.01758 1.40827,1.92556 1.70458,4.78379 0.26953,6.77735 -3.24728,3.20073 -8.11988,4.17859 -12.54687,3.82226 -2.05313,0.18277 -5.04463,-1.33266 -4.57227,-3.83008 1.76258,-3.49306 5.5607,-5.37115 8.90235,-7.08984 0.91091,-0.72222 2.8819,-0.78969 2.9375,-2.10352 -0.7549,-0.90194 -0.7479,-2.53779 -1.83594,-2.99023 -1.49276,0.29525 -2.86483,1.60308 -4.33594,2.25195 -3.12772,1.17576 -5.20254,3.86918 -7.59765,6.0625 -3.020481,2.45729 -6.086782,5.47131 -10.1035218,6.05274 -3.014969,0.47851 -4.713089,-3.32657 -3.552734,-5.7461 1.445842,-2.46451 4.4669888,-3.42083 7.0371088,-4.36328 3.700547,-1.39038 8.334717,-1.54888 10.890627,-4.96484 3.06567,-4.15759 6.5097,-8.82764 6.31836,-14.25196 0.046,-1.69858 -0.81162,-3.8049 -2.80664,-3.75 z m 21.73047,0.51954 c 0.0117,0.073 0.0337,0.14343 0.0684,0.20898 0.0654,0.0948 0.13327,0.1623 0.20312,0.2168 a 30,30 0 0 0 -0.27148,-0.42578 z m -4.25391,2.48828 c -2.45509,1.242 -4.80151,2.76598 -6.72461,4.75 -0.56372,0.76451 -2.37851,1.93389 -0.73047,2.58398 1.77205,-1.33488 3.5338,-2.68249 5.26172,-4.07422 0.84455,-0.90561 2.47263,-1.5399 2.75977,-2.67383 -0.18854,-0.19567 -0.37789,-0.39026 -0.56641,-0.58593 z m -14.33984,10.92187 c -0.11785,-0.0112 -0.21616,0.0459 -0.27735,0.24805 -0.70119,1.17946 1.67004,1.06179 0.93946,0.0215 -0.21734,-0.0431 -0.4657,-0.25092 -0.66211,-0.26953 z m 4.73242,11.19141 c -2.69663,0.73394 -5.17974,2.37739 -7.57813,3.84961 -0.72484,0.72814 -2.96633,1.38008 -1.90039,2.61133 3.13654,0.36976 6.42028,-0.12904 9.19727,-1.67383 2.09758,-0.60759 1.6791,-3.34157 0.49219,-4.6211 l -0.21094,-0.16601 z m -20.603517,0.67187 c -1.309963,0.17596 -2.516411,0.87561 -3.759767,1.30274 -0.9645828,0.31099 -2.8309918,1.57156 -1.7597648,2.60156 1.5040988,0.37277 3.1001968,-0.95612 4.3749998,-1.75977 0.629917,-0.48619 2.472378,-1.40669 1.144532,-2.14453 z"
       id="path5170"
       inkscape:export-filename="C:\Users\Divit\Desktop\git-repos\Personal-Site-New\assets\images\path5170.png"
       inkscape:export-xdpi="90"
       inkscape:export-ydpi="90"
       inkscape:connector-curvature="0" />
  </g>
</svg>
