<?xml version="1.0" encoding="UTF-8" standalone="no"?>
<svg
   xmlns:dc="http://purl.org/dc/elements/1.1/"
   xmlns:cc="http://creativecommons.org/ns#"
   xmlns:rdf="http://www.w3.org/1999/02/22-rdf-syntax-ns#"
   xmlns:svg="http://www.w3.org/2000/svg"
   xmlns="http://www.w3.org/2000/svg"
   xmlns:sodipodi="http://sodipodi.sourceforge.net/DTD/sodipodi-0.dtd"
   xmlns:inkscape="http://www.inkscape.org/namespaces/inkscape"
   aria-hidden="true"
   focusable="false"
   data-prefix="fab"
   data-icon="github"
   class="svg-inline--fa fa-github fa-w-16"
   role="img"
   viewBox="0 0 496 512"
   version="1.1"
   id="svg4"
   sodipodi:docname="github-brands.svg"
   inkscape:version="0.92.2 (5c3e80d, 2017-08-06)">
  <metadata
     id="metadata10">
    <rdf:RDF>
      <cc:Work
         rdf:about="">
        <dc:format>image/svg+xml</dc:format>
        <dc:type
           rdf:resource="http://purl.org/dc/dcmitype/StillImage" />
        <dc:title></dc:title>
      </cc:Work>
    </rdf:RDF>
  </metadata>
  <defs
     id="defs8" />
  <sodipodi:namedview
     pagecolor="#ffffff"
     bordercolor="#666666"
     borderopacity="1"
     objecttolerance="10"
     gridtolerance="10"
     guidetolerance="10"
     inkscape:pageopacity="0"
     inkscape:pageshadow="2"
     inkscape:window-width="755"
     inkscape:window-height="480"
     id="namedview6"
     showgrid="false"
     inkscape:zoom="0.4609375"
     inkscape:cx="248"
     inkscape:cy="256"
     inkscape:window-x="0"
     inkscape:window-y="0"
     inkscape:window-maximized="0"
     inkscape:current-layer="svg4" />
  <path
     d="m 175.23669,380.61486 c 0,1.77255 -2.03844,3.19059 -4.60864,3.19059 -2.92472,0.26588 -4.96315,-1.15216 -4.96315,-3.19059 0,-1.77256 2.03843,-3.1906 4.60864,-3.1906 2.65883,-0.26588 4.96315,1.15216 4.96315,3.1906 z m -27.56321,-3.98825 c -0.62039,1.77255 1.15216,3.81099 3.81099,4.34276 2.30432,0.88627 4.96315,0 5.49492,-1.77256 0.53176,-1.77255 -1.15216,-3.81099 -3.81099,-4.60864 -2.30432,-0.62039 -4.87452,0.26589 -5.49492,2.03844 z m 39.17343,-1.50667 c -2.5702,0.62039 -4.34276,2.30432 -4.07687,4.34276 0.26588,1.77255 2.5702,2.92471 5.22903,2.30432 2.5702,-0.6204 4.34276,-2.30432 4.07687,-4.07688 -0.26588,-1.68392 -2.65883,-2.83608 -5.22903,-2.5702 z m 58.317,-339.621212 c -122.92657,0 -216.96052,93.324932 -216.96052,216.251502 0,98.28808 61.86211,182.39574 150.22389,211.99738 11.34434,2.03843 15.33259,-4.96315 15.33259,-10.72395 0,-5.49492 -0.26588,-35.80558 -0.26588,-54.41739 0,0 -62.03937,13.29415 -75.06764,-26.41104 0,0 -10.10355,-25.79065 -24.638488,-32.43773 0,0 -20.295735,-13.91454 1.418043,-13.64866 0,0 22.068285,1.77256 34.210275,22.86594 19.40946,34.21028 51.93582,24.37261 64.60957,18.52318 2.03844,-14.18043 7.79924,-24.0181 14.18043,-29.86752 -49.54287,-5.49492 -99.52887,-12.67376 -99.52887,-97.93357 0,-24.37261 6.7357,-36.60323 20.91613,-52.2017 -2.30432,-5.76079 -9.83767,-29.51301 2.30432,-60.17818 18.52318,-5.7608 61.15309,23.92947 61.15309,23.92947 17.72553,-4.96315 36.78048,-7.53335 55.65817,-7.53335 18.87769,0 37.93264,2.5702 55.65817,7.53335 0,0 42.62991,-29.7789 61.15309,-23.92947 12.14199,30.7538 4.60864,54.41739 2.30432,60.17818 14.18043,15.6871 22.86594,27.91772 22.86594,52.2017 0,85.5257 -52.20169,92.35003 -101.74456,97.93357 8.15375,7.00158 15.0667,20.29573 15.0667,41.12323 0,29.86753 -0.26588,66.82526 -0.26588,74.09273 0,5.7608 4.07687,12.76239 15.33259,10.72395 88.62766,-29.42438 148.71722,-113.53204 148.71722,-211.82012 0,-122.92657 -99.70612,-216.251502 -222.6327,-216.251502 z M 114.34948,341.17554 c -1.15216,0.88628 -0.88628,2.92472 0.62039,4.60864 1.41805,1.41805 3.45648,2.03844 4.60864,0.88628 1.15216,-0.88628 0.88628,-2.92471 -0.62039,-4.60864 -1.41804,-1.41804 -3.45648,-2.03843 -4.60864,-0.88628 z m -9.57179,-7.17884 c -0.62039,1.15216 0.26589,2.57021 2.03844,3.45648 1.41804,0.88628 3.19059,0.6204 3.81099,-0.62039 0.62039,-1.15216 -0.26588,-2.5702 -2.03844,-3.45648 -1.77255,-0.53177 -3.19059,-0.26588 -3.81099,0.62039 z m 28.71537,31.55145 c -1.41805,1.15216 -0.88628,3.81099 1.15216,5.49492 2.03843,2.03843 4.60863,2.30432 5.76079,0.88627 1.15216,-1.15216 0.6204,-3.81099 -1.15216,-5.49491 -1.9498,-2.03844 -4.60863,-2.30432 -5.76079,-0.88628 z M 123.3895,352.51989 c -1.41804,0.88627 -1.41804,3.19059 0,5.22903 1.41804,2.03843 3.81099,2.92471 4.96315,2.03843 1.41804,-1.15216 1.41804,-3.45647 0,-5.49491 -1.24079,-2.03844 -3.54511,-2.92471 -4.96315,-1.77255 z"
     id="path2"
     inkscape:connector-curvature="0"
     style="fill:currentColor;stroke-width:0.99999994" />
</svg>
