<?xml version="1.0" encoding="UTF-8" standalone="no"?>
<svg
   xmlns:dc="http://purl.org/dc/elements/1.1/"
   xmlns:cc="http://creativecommons.org/ns#"
   xmlns:rdf="http://www.w3.org/1999/02/22-rdf-syntax-ns#"
   xmlns:svg="http://www.w3.org/2000/svg"
   xmlns="http://www.w3.org/2000/svg"
   xmlns:sodipodi="http://sodipodi.sourceforge.net/DTD/sodipodi-0.dtd"
   xmlns:inkscape="http://www.inkscape.org/namespaces/inkscape"
   aria-hidden="true"
   focusable="false"
   data-prefix="fab"
   data-icon="github"
   class="svg-inline--fa fa-github fa-w-16"
   role="img"
   viewBox="0 0 496 512"
   version="1.1"
   id="svg4"
   sodipodi:docname="github-brands.svg"
   inkscape:version="0.92.2 (5c3e80d, 2017-08-06)">
  <metadata
     id="metadata10">
    <rdf:RDF>
      <cc:Work
         rdf:about="">
        <dc:format>image/svg+xml</dc:format>
        <dc:type
           rdf:resource="http://purl.org/dc/dcmitype/StillImage" />
        <dc:title></dc:title>
      </cc:Work>
    </rdf:RDF>
  </metadata>
  <defs
     id="defs8" />
  <sodipodi:namedview
     pagecolor="#ffffff"
     bordercolor="#666666"
     borderopacity="1"
     objecttolerance="10"
     gridtolerance="10"
     guidetolerance="10"
     inkscape:pageopacity="0"
     inkscape:pageshadow="2"
     inkscape:window-width="755"
     inkscape:window-height="480"
     id="namedview6"
     showgrid="false"
     inkscape:zoom="0.4609375"
     inkscape:cx="248"
     inkscape:cy="256"
     inkscape:window-x="0"
     inkscape:window-y="0"
     inkscape:window-maximized="0"
     inkscape:current-layer="svg4" />
  <path
     d="m 186.00979,361.24739 c 0,1.51011 -1.73664,2.7182 -3.9263,2.7182 -2.4917,0.22651 -4.22832,-0.98158 -4.22832,-2.7182 0,-1.51013 1.73662,-2.71822 3.9263,-2.71822 2.26517,-0.22651 4.22832,0.98158 4.22832,2.71822 z m -23.48229,-3.39777 c -0.52854,1.51011 0.98157,3.24675 3.24675,3.69979 1.96315,0.75505 4.22832,0 4.68136,-1.51012 0.45302,-1.51012 -0.98158,-3.24675 -3.24675,-3.9263 -1.96315,-0.52854 -4.15282,0.22652 -4.68136,1.73663 z m 33.37354,-1.28359 c -2.18967,0.52853 -3.69979,1.96314 -3.47326,3.69978 0.22651,1.51011 2.18966,2.49169 4.45483,1.96315 2.18967,-0.52855 3.69979,-1.96315 3.47326,-3.47327 -0.22651,-1.4346 -2.26517,-2.41618 -4.45483,-2.18966 z M 245.58381,67.228029 c -104.72646,0 -184.838048,79.507541 -184.838048,184.234001 0,83.73587 52.703008,155.39082 127.982228,180.60974 9.66473,1.73663 13.0625,-4.22832 13.0625,-9.1362 0,-4.68136 -0.22652,-30.50432 -0.22652,-46.36052 0,0 -52.85402,11.32586 -63.95337,-22.50071 0,0 -8.60765,-21.97217 -20.99059,-27.63511 0,0 -17.290814,-11.85439 1.20809,-11.62788 0,0 18.80093,1.51012 29.14521,19.48048 16.53576,29.14522 44.24638,20.76408 55.04369,15.7807 1.73664,-12.08092 6.64451,-20.46206 12.08092,-25.44543 -42.20771,-4.68136 -84.79295,-10.79733 -84.79295,-83.43384 0,-20.76408 5.73844,-31.18388 17.81936,-44.47289 -1.96315,-4.90787 -8.38114,-25.14341 1.96315,-51.26839 15.7807,-4.90788 52.09896,20.38655 52.09896,20.38655 15.10115,-4.22832 31.33488,-6.41799 47.4176,-6.41799 16.08272,0 32.31646,2.18967 47.4176,6.41799 0,0 36.31827,-25.36994 52.09897,-20.38655 10.34428,26.20049 3.9263,46.36052 1.96315,51.26839 12.08092,13.36452 19.48048,23.78431 19.48048,44.47289 0,72.86304 -44.47288,78.67698 -86.68059,83.43384 6.94653,5.96495 12.83597,17.29081 12.83597,35.03466 0,25.44544 -0.22651,56.93133 -0.22651,63.1228 0,4.90787 3.47326,10.87283 13.06249,9.13619 75.50574,-25.0679 126.69863,-96.72285 126.69863,-180.45872 0,-104.72646 -84.94395,-184.234001 -189.67042,-184.234001 z M 134.13734,327.64732 c -0.98157,0.75506 -0.75506,2.4917 0.52854,3.9263 1.2081,1.2081 2.94472,1.73664 3.9263,0.75506 0.98157,-0.75506 0.75506,-2.49168 -0.52854,-3.9263 -1.20809,-1.20809 -2.94472,-1.73662 -3.9263,-0.75506 z m -8.15462,-6.11596 c -0.52854,0.98157 0.22652,2.18967 1.73663,2.94472 1.20809,0.75506 2.71821,0.52855 3.24675,-0.52853 0.52854,-0.98158 -0.22651,-2.18967 -1.73663,-2.94473 -1.51012,-0.45304 -2.7182,-0.22651 -3.24675,0.52854 z m 24.46387,26.88004 c -1.2081,0.98158 -0.75507,3.24675 0.98157,4.68136 1.73663,1.73663 3.92629,1.96315 4.90787,0.75505 0.98157,-0.98157 0.52854,-3.24674 -0.98158,-4.68135 -1.66112,-1.73663 -3.92629,-1.96315 -4.90786,-0.75506 z m -8.60766,-11.09933 c -1.20809,0.75505 -1.20809,2.7182 0,4.45483 1.20809,1.73663 3.24674,2.49169 4.22832,1.73663 1.20809,-0.98158 1.20809,-2.94472 0,-4.68135 -1.05709,-1.73664 -3.02023,-2.49169 -4.22832,-1.51011 z"
     id="path2"
     inkscape:connector-curvature="0"
     style="fill:currentColor;stroke-width:0.99999988" />
</svg>
