<?xml version="1.0" encoding="UTF-8" standalone="no"?>
<svg
   xmlns:dc="http://purl.org/dc/elements/1.1/"
   xmlns:cc="http://creativecommons.org/ns#"
   xmlns:rdf="http://www.w3.org/1999/02/22-rdf-syntax-ns#"
   xmlns:svg="http://www.w3.org/2000/svg"
   xmlns="http://www.w3.org/2000/svg"
   xmlns:sodipodi="http://sodipodi.sourceforge.net/DTD/sodipodi-0.dtd"
   xmlns:inkscape="http://www.inkscape.org/namespaces/inkscape"
   height="60"
   id="Layer_1"
   version="1.1"
   viewBox="0 0 60 60"
   width="60"
   xml:space="preserve"
   inkscape:version="0.91 r13725"
   sodipodi:docname="Github.svg"><metadata
     id="metadata9"><rdf:RDF><cc:Work
         rdf:about=""><dc:format>image/svg+xml</dc:format><dc:type
           rdf:resource="http://purl.org/dc/dcmitype/StillImage" /><dc:title></dc:title></cc:Work></rdf:RDF></metadata><defs
     id="defs7" /><sodipodi:namedview
     pagecolor="#ffffff"
     bordercolor="#666666"
     borderopacity="1"
     objecttolerance="10"
     gridtolerance="10"
     guidetolerance="10"
     inkscape:pageopacity="0"
     inkscape:pageshadow="2"
     inkscape:window-width="1920"
     inkscape:window-height="1046"
     id="namedview5"
     showgrid="false"
     inkscape:zoom="4.981409"
     inkscape:cx="-22.738544"
     inkscape:cy="35.519283"
     inkscape:window-x="-11"
     inkscape:window-y="-11"
     inkscape:window-maximized="1"
     inkscape:current-layer="Layer_1" /><path
     style="opacity:1;fill:#000000;fill-opacity:1;stroke:none;stroke-width:10;stroke-linecap:round;stroke-linejoin:miter;stroke-miterlimit:4;stroke-dasharray:none;stroke-dashoffset:0;stroke-opacity:1"
     d="M 43.95728,7.3122823 C 42.154132,7.3386004 38.981415,8.970544 37.143271,10.164053 33.72123,9.1804167 26.486662,9.2744471 23.77332,10.416906 18.767052,6.8947665 16.117333,7.4348012 16.117333,7.4348012 c 0,0 -1.713481,3.0142398 -0.453572,7.4265938 -1.646955,2.063364 -2.875228,3.523553 -2.875228,7.392702 0.0013,2.180817 0.26382,4.133471 0.852402,5.836481 -0.07207,0 0.789279,1.824718 0.813302,1.824718 1.881854,3.357976 5.509282,5.444929 11.628651,6.024167 -0.872861,0.65131 -1.921668,1.887694 -2.067142,3.31577 -1.098418,0.698021 -3.306823,0.928747 -5.023181,0.396223 -2.406373,-0.746067 -3.326489,-5.427223 -6.928706,-4.759902 -0.779435,0.14281 -0.624471,0.648098 0.04951,1.079191 1.098419,0.69802 2.13058,1.573904 2.927365,3.433072 0.612605,1.428073 1.898749,3.977879 5.969429,3.977879 1.614924,0 2.7475,-0.190292 2.7475,-0.190292 0,0 0.03128,3.644886 0.03128,5.062283 0,1.634945 -2.2444,2.094335 -2.2444,2.880441 0,0.310974 0.743277,0.341486 1.339864,0.341486 1.17983,0 3.633792,-0.967685 3.633792,-2.666693 0,-1.349331 0.02086,-5.885613 0.02086,-6.681065 0,-1.735043 0.948855,-2.286107 0.948855,-2.286107 0,0 0.116226,9.261257 -0.226788,10.505149 -0.403063,1.460103 -1.131322,1.254212 -1.131322,1.905524 0,0.968952 2.956537,0.238881 3.936171,-1.889886 0.756745,-1.65363 0.4249,-10.744967 0.4249,-10.744967 l 0.808085,-0.0156 c 0,0 0.04365,4.161396 0.0156,6.06327 -0.02802,1.969939 -0.163444,4.458666 1.027056,5.633158 0.782101,0.772762 3.315767,2.127451 3.315767,0.888895 0,-0.719374 -1.38939,-1.30856 -1.38939,-3.255811 l 0,-8.96196 c 1.109093,0 0.943637,2.945611 0.943637,2.945611 l 0.08082,5.476754 c 0,0 -0.246204,1.994152 2.194872,2.828309 0.860848,0.297625 2.705063,0.377913 2.791814,-0.119906 0.08674,-0.497825 -2.220437,-1.238536 -2.241793,-2.78139 -0.01351,-0.943598 0.04433,-1.494142 0.04433,-5.588842 0,-4.094703 -0.560365,-5.607486 -2.510285,-6.814007 6.016597,-0.607269 9.741874,-2.07048 11.555663,-5.987673 0.141473,0.0042 0.740854,-1.829933 0.66211,-1.829933 0.407067,-1.47879 0.627222,-3.228119 0.669931,-5.299492 -0.01046,-5.61888 -2.746939,-7.606757 -3.271458,-8.539674 0.774096,-4.253527 -0.13094,-6.1884577 -0.550021,-6.8531138 -0.193859,-0.067724 -0.422768,-0.097609 -0.680359,-0.09384 z"
     id="rect3712"
     inkscape:connector-curvature="0" /></svg>