<?xml version="1.0" encoding="UTF-8" standalone="no"?>
<!-- Created with Inkscape (http://www.inkscape.org/) -->

<svg
   xmlns:dc="http://purl.org/dc/elements/1.1/"
   xmlns:cc="http://creativecommons.org/ns#"
   xmlns:rdf="http://www.w3.org/1999/02/22-rdf-syntax-ns#"
   xmlns:svg="http://www.w3.org/2000/svg"
   xmlns="http://www.w3.org/2000/svg"
   xmlns:sodipodi="http://sodipodi.sourceforge.net/DTD/sodipodi-0.dtd"
   xmlns:inkscape="http://www.inkscape.org/namespaces/inkscape"
   width="70.435585mm"
   height="70.435585mm"
   viewBox="0 0 249.57491 249.5749"
   id="svg3961"
   version="1.1"
   inkscape:version="0.92.2 (5c3e80d, 2017-08-06)"
   sodipodi:docname="signature.svg">
  <defs
     id="defs3963" />
  <sodipodi:namedview
     id="base"
     pagecolor="#ffffff"
     bordercolor="#666666"
     borderopacity="1.0"
     inkscape:pageopacity="0.0"
     inkscape:pageshadow="2"
     inkscape:zoom="2.8"
     inkscape:cx="119.32986"
     inkscape:cy="173.93153"
     inkscape:document-units="px"
     inkscape:current-layer="layer1"
     showgrid="false"
     inkscape:window-width="1920"
     inkscape:window-height="1057"
     inkscape:window-x="-8"
     inkscape:window-y="-8"
     inkscape:window-maximized="1"
     fit-margin-top="0"
     fit-margin-left="0"
     fit-margin-right="0"
     fit-margin-bottom="0" />
  <metadata
     id="metadata3966">
    <rdf:RDF>
      <cc:Work
         rdf:about="">
        <dc:format>image/svg+xml</dc:format>
        <dc:type
           rdf:resource="http://purl.org/dc/dcmitype/StillImage" />
        <dc:title></dc:title>
      </cc:Work>
    </rdf:RDF>
  </metadata>
  <g
     inkscape:label="Layer 1"
     inkscape:groupmode="layer"
     id="layer1"
     transform="translate(18.488243,-821.27554)">
    <circle
       r="124.78745"
       cy="946.06299"
       cx="106.29921"
       id="circle4317"
       style="opacity:1;fill:#ffffff;fill-opacity:1;stroke:none;stroke-width:2.7106297;stroke-linecap:square;stroke-linejoin:round;stroke-miterlimit:4;stroke-dasharray:none;stroke-dashoffset:0;stroke-opacity:1;paint-order:stroke fill markers" />
    <g
       id="g4321"
       style="fill:#e0eaff;fill-opacity:1">
      <path
         inkscape:connector-curvature="0"
         id="path4588"
         d="m 119.77056,870.24754 c -23.50805,2.64435 -41.872024,20.15845 -58.054577,36.05418 -25.373869,27.46136 -40.926088,62.19325 -54.8165113,96.51998 -2.446731,4.4962 0.1221558,11.6827 6.1250003,9.5703 5.988468,-2.7238 4.938392,-10.8381 8.298828,-15.71868 16.277558,-38.49365 36.148285,-78.22824 71.289211,-102.88139 8.125649,-5.11291 16.603469,-11.04777 26.232269,-12.58736 7.10948,-0.19551 10.16409,7.31217 10,13.36523 0.68185,19.33013 -11.59473,35.9692 -22.51953,50.78516 -9.108274,12.17313 -25.617407,12.74056 -38.804685,17.69531 -9.158881,3.35852 -19.925728,6.76434 -25.078125,15.54688 -4.135037,8.62221 1.91406,22.18765 12.658203,20.48242 14.31406,-2.07196 25.244023,-12.81352 36.007813,-21.57032 8.535185,-7.8161 15.926644,-17.4134 27.072584,-21.60335 5.24246,-2.31227 10.13006,-6.9756 15.44966,-8.02777 3.87736,1.61231 3.85012,7.44041 6.54025,10.65456 -0.19811,4.68195 -7.21923,4.92504 -10.46534,7.49875 -11.9083,6.12474 -25.44102,12.81903 -31.722154,25.26688 -1.68331,8.89978 8.976424,14.29778 16.292964,13.64648 15.77604,1.2698 33.13893,-2.2189 44.71094,-13.625 5.11394,-7.10424 4.05756,-17.28457 -0.96094,-24.14648 0.70527,-5.41458 8.12661,-4.8468 12.08909,-7.19303 8.56683,-3.41245 18.20096,-5.55681 25.75076,-10.81478 2.60729,-5.16926 -4.69228,-10.85355 -9.14604,-7.04145 -11.94891,3.53346 -23.54598,9.87435 -35.65084,12.61957 -3.03383,-4.53646 -6.2784,-10.12485 -6.01953,-15.70117 20.85494,-16.28878 43.65894,-30.84635 61.11133,-50.97266 3.61336,-5.39343 0.35571,-13.9253 -6.65625,-13.50195 -12.24618,-0.46103 -22.40976,7.46992 -32.96139,12.90013 -9.18726,5.76098 -17.74907,12.8097 -24.1265,21.65456 -6.11513,-0.36778 -1.76595,-6.62335 -2.38477,-10.44336 1.27135,-12.81172 -5.40115,-28.57856 -20.26172,-28.43164 z m 79.24805,9.37695 c 4.9768,0.73061 0.39494,8.37746 -2.49805,4.17969 -0.9023,-1.70454 0.49506,-4.37826 2.49805,-4.17969 z m -15.87891,14.39062 c -1.02324,4.04087 -6.82259,6.29732 -9.83223,9.52455 -6.15761,4.95956 -12.43882,9.76343 -18.7537,14.52038 -5.87298,-2.31666 0.59657,-6.48455 2.60546,-9.20899 6.85317,-7.07023 15.21593,-12.50175 23.96485,-16.92773 0.67187,0.69726 1.34375,1.39453 2.01562,2.09179 z m -50.75781,37.79102 c 2.60351,3.70723 -5.85226,4.12508 -3.35351,-0.0781 0.58149,-1.92072 2.11433,-0.16729 3.35351,0.0781 z m 15.25586,39.51172 c 4.22966,4.55975 5.71909,14.30548 -1.75586,16.4707 -9.89608,5.50502 -21.59803,7.27861 -32.77539,5.96094 -3.79857,-4.38765 4.18649,-6.70991 6.76953,-9.30469 8.5469,-5.24639 17.40004,-11.10131 27.00977,-13.71679 z m -74.177732,1.80273 c 4.731905,2.62936 -1.833379,5.90802 -4.078125,7.64063 -4.542893,2.8639 -10.230791,7.59969 -15.590789,6.27127 -3.817423,-3.67048 2.833098,-8.16108 6.270477,-9.26932 4.430832,-1.52214 8.730263,-4.01553 13.398437,-4.64258 z"
         style="opacity:1;fill:#e0eaff;fill-opacity:1;stroke:none;stroke-width:5;stroke-linecap:round;stroke-linejoin:round;stroke-miterlimit:4;stroke-dasharray:none;stroke-dashoffset:0;stroke-opacity:1" />
      <circle
         r="4.9213681"
         cy="883.27734"
         cx="198.5491"
         id="path4315"
         style="opacity:1;fill:#e0eaff;fill-opacity:1;stroke:none;stroke-width:2.71062994;stroke-linecap:square;stroke-linejoin:round;stroke-miterlimit:4;stroke-dasharray:none;stroke-dashoffset:0;stroke-opacity:1;paint-order:stroke fill markers" />
    </g>
  </g>
</svg>
