<?xml version="1.0" encoding="UTF-8" standalone="no"?>
<!-- Created with Inkscape (http://www.inkscape.org/) -->

<svg
   xmlns:dc="http://purl.org/dc/elements/1.1/"
   xmlns:cc="http://creativecommons.org/ns#"
   xmlns:rdf="http://www.w3.org/1999/02/22-rdf-syntax-ns#"
   xmlns:svg="http://www.w3.org/2000/svg"
   xmlns="http://www.w3.org/2000/svg"
   xmlns:sodipodi="http://sodipodi.sourceforge.net/DTD/sodipodi-0.dtd"
   xmlns:inkscape="http://www.inkscape.org/namespaces/inkscape"
   width="70.435585mm"
   height="70.435585mm"
   viewBox="0 0 249.57491 249.5749"
   id="svg3961"
   version="1.1"
   inkscape:version="0.92.2 (5c3e80d, 2017-08-06)"
   sodipodi:docname="signature.svg">
  <defs
     id="defs3963" />
  <sodipodi:namedview
     id="base"
     pagecolor="#ffffff"
     bordercolor="#666666"
     borderopacity="1.0"
     inkscape:pageopacity="0.0"
     inkscape:pageshadow="2"
     inkscape:zoom="0.98994949"
     inkscape:cx="-13.556619"
     inkscape:cy="30.277231"
     inkscape:document-units="px"
     inkscape:current-layer="layer1"
     showgrid="false"
     inkscape:window-width="1920"
     inkscape:window-height="1057"
     inkscape:window-x="-8"
     inkscape:window-y="-8"
     inkscape:window-maximized="1"
     fit-margin-top="0"
     fit-margin-left="0"
     fit-margin-right="0"
     fit-margin-bottom="0" />
  <metadata
     id="metadata3966">
    <rdf:RDF>
      <cc:Work
         rdf:about="">
        <dc:format>image/svg+xml</dc:format>
        <dc:type
           rdf:resource="http://purl.org/dc/dcmitype/StillImage" />
        <dc:title />
      </cc:Work>
    </rdf:RDF>
  </metadata>
  <g
     inkscape:label="Layer 1"
     inkscape:groupmode="layer"
     id="layer1"
     transform="translate(18.488243,-821.27554)">
    <path
       style="opacity:1;fill:#ffffff;fill-opacity:1;stroke:none;stroke-width:2.89133835;stroke-linecap:square;stroke-linejoin:round;stroke-miterlimit:4;stroke-dasharray:none;stroke-dashoffset:0;stroke-opacity:1;paint-order:stroke fill markers"
       d="M 133.10742 0 A 133.10661 133.10661 0 0 0 0 133.10742 A 133.10661 133.10661 0 0 0 16.960938 197.80664 C 31.770757 159.15022 50.02314 121.00484 77.466797 89.638672 C 97.299455 69.400432 119.82832 47.165806 149.42578 43.914062 C 150.71629 43.88106 152.00696 44.012782 153.27539 44.246094 C 168.72659 47.351662 174.93333 65.3754 172.99609 79.439453 C 172.50068 82.685309 170.01483 89.10575 175.15039 89.742188 C 181.23536 83.162508 187.41183 75.842049 195.00781 70.556641 C 208.04309 62.299092 221.20054 52.480532 236.66211 49.558594 A 133.10661 133.10661 0 0 0 133.10742 0 z M 148.32617 57.46875 C 141.91938 57.318082 135.53758 60.994679 130.08594 63.871094 C 90.936239 85.347051 65.520569 123.33291 46.587891 162.64062 C 39.528551 177.71442 32.324151 192.62998 27.050781 208.33398 C 26.670792 209.44421 26.070572 210.30489 25.333984 210.94336 A 133.10661 133.10661 0 0 0 133.10742 266.21289 A 133.10661 133.10661 0 0 0 266.21289 133.10742 A 133.10661 133.10661 0 0 0 248.7207 67.482422 C 241.32574 76.961275 231.53675 84.671266 222.36328 92.376953 C 208.48364 104.25302 192.62833 113.65318 179.14844 125.9707 C 178.95557 132.19063 182.0424 138.49541 186.08594 143.21875 C 200.0154 141.28492 212.7085 133.26622 226.3457 129.36523 C 231.14585 125.14375 240.64094 128.63788 239.5918 135.59961 C 233.24985 143.32688 222.14706 144.79532 213.2207 148.40039 C 207.38272 152.15692 198.34528 151.02749 194.60352 157.50391 C 198.2947 165.35458 201.72738 175.23438 197.44922 183.7793 C 188.73771 196.64377 172.30563 201.84695 157.45508 203.27148 C 146.31104 203.63916 131.63142 205.85043 124.50781 194.96094 C 119.69773 187.28216 127.69043 179.7313 132.7168 174.56836 C 143.46646 165.29646 156.62083 158.59846 169.36328 153.06445 C 175.3553 150.59221 170.72308 144.51741 169.28125 140.45898 C 168.13645 136.56376 164.07384 135.05545 160.66992 137.44922 C 152.21593 143.56953 141.92295 146.4948 133.89844 153.29492 C 115.93087 168.41044 100.39372 188.53321 77.013672 195.45898 C 68.57576 199.3665 58.625809 193.55787 56.582031 184.75977 C 52.611305 172.41519 64.035728 162.27971 74.570312 158.47266 C 91.717399 149.38668 113.01392 150.03388 128.4375 137.54492 C 141.13729 122.75219 153.28611 106.27268 158.08984 86.978516 C 159.99117 77.64723 162.08131 64.573409 152.75391 58.242188 C 151.28367 57.742828 149.80466 57.50352 148.32617 57.46875 z M 221.75977 70.046875 C 210.89986 74.626352 201.2156 81.714309 192.9668 90.082031 C 190.62324 92.501925 184.72648 96.888155 189.17578 100.06445 C 199.24321 94.892677 207.7374 86.108651 217.02539 79.333984 C 219.43828 77.598422 225.80819 73.702031 222.20508 70.359375 L 221.75977 70.046875 z M 161.05469 115.77539 C 159.2825 115.92359 159.15925 118.94004 160.50977 119.8418 C 164.30614 121.9978 165.51553 115.99851 161.43164 115.78516 C 161.29878 115.76806 161.17283 115.76551 161.05469 115.77539 z M 181.04102 163.14453 C 169.89043 165.77368 159.9366 172.44102 150.31445 178.5293 C 147.23099 181.39971 138.63696 183.34729 140.57422 189.10352 C 153.0738 192.26101 166.87208 189.22687 178.4707 183.50586 C 187.89456 181.61229 187.88287 167.96431 181.04102 163.14453 z M 94.076172 165.99805 C 89.445147 166.13571 85.333416 168.59779 81.132812 170.26562 C 76.465376 171.6382 68.222551 175.06836 70.458984 181.18555 C 77.903967 184.30582 84.701342 177.10157 90.691406 173.50781 C 93.478359 172.93404 98.631802 167.35635 94.076172 165.99805 z "
       transform="matrix(0.93750002,0,0,0.93750002,-18.488243,821.27554)"
       id="circle4317" />
    <g
       style="fill:#e0eaff;fill-opacity:1"
       id="g823"
       transform="translate(-319.41965,45.535715)">
      <path
         style="opacity:1;fill:#e0eaff;fill-opacity:1;stroke:none;stroke-width:5;stroke-linecap:round;stroke-linejoin:round;stroke-miterlimit:4;stroke-dasharray:none;stroke-dashoffset:0;stroke-opacity:1"
         d="m 119.77056,870.24754 c -23.50805,2.64435 -41.872024,20.15845 -58.054577,36.05418 -25.373869,27.46136 -40.926088,62.19325 -54.8165113,96.51998 -2.446731,4.4962 0.1221558,11.6827 6.1250003,9.5703 5.988468,-2.7238 4.938392,-10.8381 8.298828,-15.71868 16.277558,-38.49365 36.148285,-78.22824 71.289211,-102.88139 8.125649,-5.11291 16.603469,-11.04777 26.232269,-12.58736 7.10948,-0.19551 10.16409,7.31217 10,13.36523 0.68185,19.33013 -11.59473,35.9692 -22.51953,50.78516 -9.108274,12.17313 -25.617407,12.74056 -38.804685,17.69531 -9.158881,3.35852 -19.925728,6.76434 -25.078125,15.54688 -4.135037,8.62221 1.91406,22.18765 12.658203,20.48242 14.31406,-2.07196 25.244023,-12.81352 36.007813,-21.57032 8.535185,-7.8161 15.926644,-17.4134 27.072584,-21.60335 5.24246,-2.31227 10.13006,-6.9756 15.44966,-8.02777 3.87736,1.61231 3.85012,7.44041 6.54025,10.65456 -0.19811,4.68195 -7.21923,4.92504 -10.46534,7.49875 -11.9083,6.12474 -25.44102,12.81903 -31.722154,25.26688 -1.68331,8.89978 8.976424,14.29778 16.292964,13.64648 15.77604,1.2698 33.13893,-2.2189 44.71094,-13.625 5.11394,-7.10424 4.05756,-17.28457 -0.96094,-24.14648 0.70527,-5.41458 8.12661,-4.8468 12.08909,-7.19303 8.56683,-3.41245 18.20096,-5.55681 25.75076,-10.81478 2.60729,-5.16926 -4.69228,-10.85355 -9.14604,-7.04145 -11.94891,3.53346 -23.54598,9.87435 -35.65084,12.61957 -3.03383,-4.53646 -6.2784,-10.12485 -6.01953,-15.70117 20.85494,-16.28878 43.65894,-30.84635 61.11133,-50.97266 3.61336,-5.39343 0.35571,-13.9253 -6.65625,-13.50195 -12.24618,-0.46103 -22.40976,7.46992 -32.96139,12.90013 -9.18726,5.76098 -17.74907,12.8097 -24.1265,21.65456 -6.11513,-0.36778 -1.76595,-6.62335 -2.38477,-10.44336 1.27135,-12.81172 -5.40115,-28.57856 -20.26172,-28.43164 z m 79.24805,9.37695 c 4.9768,0.73061 0.39494,8.37746 -2.49805,4.17969 -0.9023,-1.70454 0.49506,-4.37826 2.49805,-4.17969 z m -15.87891,14.39062 c -1.02324,4.04087 -6.82259,6.29732 -9.83223,9.52455 -6.15761,4.95956 -12.43882,9.76343 -18.7537,14.52038 -5.87298,-2.31666 0.59657,-6.48455 2.60546,-9.20899 6.85317,-7.07023 15.21593,-12.50175 23.96485,-16.92773 0.67187,0.69726 1.34375,1.39453 2.01562,2.09179 z m -50.75781,37.79102 c 2.60351,3.70723 -5.85226,4.12508 -3.35351,-0.0781 0.58149,-1.92072 2.11433,-0.16729 3.35351,0.0781 z m 15.25586,39.51172 c 4.22966,4.55975 5.71909,14.30548 -1.75586,16.4707 -9.89608,5.50502 -21.59803,7.27861 -32.77539,5.96094 -3.79857,-4.38765 4.18649,-6.70991 6.76953,-9.30469 8.5469,-5.24639 17.40004,-11.10131 27.00977,-13.71679 z m -74.177732,1.80273 c 4.731905,2.62936 -1.833379,5.90802 -4.078125,7.64063 -4.542893,2.8639 -10.230791,7.59969 -15.590789,6.27127 -3.817423,-3.67048 2.833098,-8.16108 6.270477,-9.26932 4.430832,-1.52214 8.730263,-4.01553 13.398437,-4.64258 z"
         id="path819"
         inkscape:connector-curvature="0" />
      <circle
         style="opacity:1;fill:#e0eaff;fill-opacity:1;stroke:none;stroke-width:2.71062994;stroke-linecap:square;stroke-linejoin:round;stroke-miterlimit:4;stroke-dasharray:none;stroke-dashoffset:0;stroke-opacity:1;paint-order:stroke fill markers"
         id="circle821"
         cx="198.5491"
         cy="883.27734"
         r="4.9213681" />
    </g>
    <circle
       style="opacity:1;fill:#c8b7b7;fill-opacity:1;stroke:none;stroke-width:2.7106297;stroke-linecap:square;stroke-linejoin:round;stroke-miterlimit:4;stroke-dasharray:none;stroke-dashoffset:0;stroke-opacity:1;paint-order:stroke fill markers"
       id="circle836"
       cx="-192.95848"
       cy="1116.5262"
       r="124.78745" />
  </g>
</svg>
