<svg height="512pt" viewBox="0 0 512.07132 512" width="512pt" xmlns="http://www.w3.org/2000/svg"><path d="m471.023438 225.453125c-15.527344-42.425781-53.011719-72.960937-97.695313-79.589844-13.964844-2.402343-28.316406.691407-40.046875 8.632813-6.945312 4.679687-15.050781 7.339844-23.417969 7.679687h-107.65625c-8.367187-.339843-16.476562-3-23.421875-7.679687-11.738281-7.929688-26.082031-11.019532-40.039062-8.625-17.566406 2.847656-34.371094 9.234375-49.390625 18.773437-21.878907 14.925781-38.722657 36.132813-48.308594 60.824219-27.6875 66.441406-41.636719 137.800781-41.0117188 209.773438-.6015622 22.792968 6.4804688 45.128906 20.1132818 63.40625 6.359374 8.34375 16.21875 13.289062 26.710937 13.394531 11.03125.195312 21.511719-4.828125 28.269531-13.550781l50.421875-68.113282c9.671875-13.003906 24.910157-20.6875 41.117188-20.734375h178.738281c16.234375.019531 31.503906 7.707031 41.1875 20.734375l50.648438 68.394532c6.683593 8.371093 16.808593 13.253906 27.519531 13.269531h.453125c10.496094-.109375 20.355468-5.054688 26.714844-13.40625 13.628906-18.273438 20.710937-40.605469 20.105468-63.394531.625-71.976563-13.324218-143.335938-41.011718-209.78125zm23.945312 209.789063c.570312 19.03125-5.269531 37.699218-16.578125 53.011718-3.171875 4.210938-8.128906 6.699219-13.398437 6.722656-5.5625.242188-10.894532-2.238281-14.292969-6.648437l-50.449219-68.101563c-12.898438-17.351562-33.226562-27.597656-54.84375-27.648437h-178.738281c-21.621094.050781-41.949219 10.296875-54.84375 27.648437l-50.21875 67.820313c-3.46875 4.363281-8.730469 6.914063-14.304688 6.929687h-.222656c-5.265625-.023437-10.222656-2.511718-13.386719-6.722656-11.316406-15.3125-17.160156-33.980468-16.589844-53.011718-.636718-69.636719 12.832032-138.6875 39.59375-202.980469 8.167969-21.574219 22.738282-40.136719 41.753907-53.195313 13.085937-8.304687 27.714843-13.863281 43.007812-16.351562 9.628907-1.703125 19.542969.386718 27.667969 5.828125 9.773438 6.664062 21.257812 10.378906 33.082031 10.699219h107.65625c11.828125-.324219 23.3125-4.039063 33.09375-10.699219 8.117188-5.445313 18.03125-7.53125 27.65625-5.828125 15.292969 2.488281 29.925781 8.046875 43.007813 16.351562 19.015625 13.058594 33.582031 31.617188 41.753906 53.1875 26.761719 64.296875 40.230469 133.347656 39.59375 202.988282zm0 0"/><path d="m451.609375 298.976562c-4.566406 1.15625-7.332031 5.796876-6.175781 10.367188 5.570312 22.066406 9.628906 44.492188 12.140625 67.113281.484375 4.316407 4.132812 7.582031 8.476562 7.585938.320313 0 .644531-.015625.964844-.050781 4.660156-.527344 8.023437-4.71875 7.523437-9.386719-2.601562-23.398438-6.796874-46.589844-12.550781-69.417969-.546875-2.203125-1.949219-4.097656-3.898437-5.261719-1.945313-1.164062-4.277344-1.507812-6.480469-.949219zm0 0"/><path d="m58.222656 307.464844c-4.582031-1.066406-9.160156 1.777344-10.238281 6.359375-3.3125 14.097656-6.066406 28.6875-8.210937 43.390625-.679688 4.65625 2.539062 8.988281 7.195312 9.675781.414062.058594.828125.085937 1.246094.085937 4.234375-.007812 7.820312-3.113281 8.429687-7.304687 2.074219-14.214844 4.738281-28.328125 7.9375-41.941406.519531-2.203125.140625-4.523438-1.050781-6.449219s-3.101562-3.296875-5.308594-3.816406zm0 0"/><path d="m45.039062 384.042969c-4.695312-.367188-8.800781 3.140625-9.171874 7.835937-1.125 14.351563-1.699219 28.953125-1.699219 43.363282 0 4.714843 3.820312 8.535156 8.535156 8.535156 4.710937 0 8.53125-3.820313 8.53125-8.535156 0-13.96875.554687-28.097657 1.648437-41.992188.1875-2.261719-.535156-4.503906-2.007812-6.230469-1.472656-1.730469-3.570312-2.800781-5.835938-2.976562zm0 0"/><path d="m170.703125 230.445312c0-23.566406-19.101563-42.667968-42.667969-42.667968-23.5625 0-42.667968 19.101562-42.667968 42.667968 0 23.5625 19.105468 42.664063 42.667968 42.664063 23.554688-.027344 42.640625-19.113281 42.667969-42.664063zm-42.667969 25.597657c-14.136718 0-25.597656-11.460938-25.597656-25.597657 0-14.140624 11.460938-25.601562 25.597656-25.601562 14.140625 0 25.601563 11.460938 25.601563 25.601562 0 14.136719-11.460938 25.597657-25.601563 25.597657zm0 0"/><path d="m187.769531 290.175781c-23.566406 0-42.667969 19.105469-42.667969 42.667969s19.101563 42.667969 42.667969 42.667969c23.5625 0 42.667969-19.105469 42.667969-42.667969-.03125-23.550781-19.117188-42.636719-42.667969-42.667969zm24.027344 34.136719h-15.496094v-15.5c7.230469 2.582031 12.917969 8.269531 15.496094 15.5zm-32.5625-15.5v15.5h-15.496094c2.582031-7.230469 8.269531-12.917969 15.496094-15.5zm-15.496094 32.566406h15.496094v15.496094c-7.226563-2.582031-12.914063-8.269531-15.496094-15.496094zm32.5625 15.496094v-15.496094h15.496094c-2.578125 7.226563-8.265625 12.914063-15.496094 15.496094zm0 0"/><path d="m324.300781 290.175781c-23.5625 0-42.664062 19.105469-42.664062 42.667969s19.101562 42.667969 42.664062 42.667969c23.566407 0 42.667969-19.105469 42.667969-42.667969-.027344-23.550781-19.113281-42.636719-42.667969-42.667969zm0 68.269531c-14.136719 0-25.597656-11.460937-25.597656-25.601562 0-14.136719 11.460937-25.601562 25.597656-25.601562 14.140625 0 25.601563 11.464843 25.601563 25.601562 0 14.140625-11.460938 25.601562-25.601563 25.601562zm0 0"/><path d="m332.835938 332.84375c0 4.714844-3.820313 8.535156-8.535157 8.535156-4.710937 0-8.53125-3.820312-8.53125-8.535156 0-4.710938 3.820313-8.53125 8.53125-8.53125 4.714844 0 8.535157 3.820312 8.535157 8.53125zm0 0"/><path d="m230.4375 230.445312c0 4.710938-3.824219 8.53125-8.535156 8.53125-4.710938 0-8.535156-3.820312-8.535156-8.53125 0-4.714843 3.824218-8.535156 8.535156-8.535156 4.710937 0 8.535156 3.820313 8.535156 8.535156zm0 0"/><path d="m298.703125 230.445312c0 4.710938-3.820313 8.53125-8.535156 8.53125-4.710938 0-8.53125-3.820312-8.53125-8.53125 0-4.714843 3.820312-8.535156 8.53125-8.535156 4.714843 0 8.535156 3.820313 8.535156 8.535156zm0 0"/><path d="m264.570312 119.511719c0 4.710937-3.820312 8.53125-8.535156 8.53125-4.710937 0-8.53125-3.820313-8.53125-8.53125 0-4.714844 3.820313-8.535157 8.53125-8.535157 4.714844 0 8.535156 3.820313 8.535156 8.535157zm0 0"/><path d="m196.082031 38.777344c34.746094-28.894532 85.160157-28.894532 119.910157 0 3.625 3.015625 9.011718 2.519531 12.027343-1.105469s2.519531-9.011719-1.105469-12.027344c-41.085937-34.144531-100.671874-34.144531-141.757812 0-3.621094 3.015625-4.117188 8.398438-1.097656 12.023438 3.015625 3.625 8.398437 4.117187 12.023437 1.101562zm0 0"/><path d="m305.921875 73.011719c3.394531 0 6.46875-2.015625 7.824219-5.132813 1.351562-3.113281.730468-6.734375-1.585938-9.21875-14.488281-15.613281-34.824218-24.484375-56.125-24.484375-21.296875 0-41.632812 8.871094-56.125 24.484375-3.210937 3.445313-3.023437 8.847656.425782 12.0625 3.445312 3.210938 8.847656 3.023438 12.058593-.421875 11.261719-12.148437 27.078125-19.054687 43.640625-19.054687 16.566406 0 32.378906 6.90625 43.640625 19.054687 1.613281 1.730469 3.878907 2.714844 6.246094 2.710938zm0 0"/><path d="m278.171875 98.648438c1.585937 2.375 4.25 3.800781 7.109375 3.796874 1.679688 0 3.320312-.496093 4.71875-1.433593 3.921875-2.613281 4.984375-7.914063 2.371094-11.835938-8.152344-12.289062-21.613282-20.019531-36.335938-20.863281-14.71875.84375-28.183594 8.574219-36.335937 20.863281-2.613281 3.921875-1.554688 9.21875 2.363281 11.835938 3.921875 2.613281 9.222656 1.554687 11.835938-2.363281 5.027343-7.511719 13.144531-12.378907 22.136718-13.269532 8.992188.890625 17.113282 5.757813 22.136719 13.269532zm0 0"/><path d="m366.96875 238.976562c0 4.714844-3.820312 8.535157-8.53125 8.535157-4.714844 0-8.535156-3.820313-8.535156-8.535157 0-4.710937 3.820312-8.53125 8.535156-8.53125 4.710938 0 8.53125 3.820313 8.53125 8.53125zm0 0"/><path d="m401.101562 273.109375c0 4.714844-3.820312 8.535156-8.53125 8.535156-4.714843 0-8.535156-3.820312-8.535156-8.535156 0-4.710937 3.820313-8.53125 8.535156-8.53125 4.710938 0 8.53125 3.820313 8.53125 8.53125zm0 0"/><path d="m435.234375 238.976562c0 4.714844-3.820313 8.535157-8.53125 8.535157-4.714844 0-8.535156-3.820313-8.535156-8.535157 0-4.710937 3.820312-8.53125 8.535156-8.53125 4.710937 0 8.53125 3.820313 8.53125 8.53125zm0 0"/><path d="m401.101562 204.84375c0 4.714844-3.820312 8.535156-8.53125 8.535156-4.714843 0-8.535156-3.820312-8.535156-8.535156 0-4.710938 3.820313-8.53125 8.535156-8.53125 4.710938 0 8.53125 3.820312 8.53125 8.53125zm0 0"/></svg>